PathFileType	4	(X/Y/Z)	/Users/itak/Documents/Research/Walk-IL/dataset/trc/00195_00008.trc
DataRate	CameraRate	NumFrames	NumMarkers	Units	OrigDataRate	OrigDataStartFrame	OrigNumFrames
100.000000	100.000000	4	53	mm	100.000000	488	782
Frame#	Time	RPSI			LPSI			L3			STRN			T10			C7			CLAV			RBAK			LBAK			LSHO			LUPA			LAEL			LAOL			LWTS			LWPS			LFRA			LIFD			LHPS			LHTS			RSHO			RUPA			RAEL			RAOL			RWTS			RWPS			RFRA			RIFD			RHTS			RHPS			RBHD			LFHD			RFHD			LBHD			LHIP			RHIP			RASI			LASI			LKNE			LTHI			LANK			LTIP			LTOE			LMT1			LMT5			LHEE			RKNE			RTHI			RANK			RTIP			RTOE			RMT1			RMT5			RHEE			
		X1	Y1	Z1	X2	Y2	Z2	X3	Y3	Z3	X4	Y4	Z4	X5	Y5	Z5	X6	Y6	Z6	X7	Y7	Z7	X8	Y8	Z8	X9	Y9	Z9	X10	Y10	Z10	X11	Y11	Z11	X12	Y12	Z12	X13	Y13	Z13	X14	Y14	Z14	X15	Y15	Z15	X16	Y16	Z16	X17	Y17	Z17	X18	Y18	Z18	X19	Y19	Z19	X20	Y20	Z20	X21	Y21	Z21	X22	Y22	Z22	X23	Y23	Z23	X24	Y24	Z24	X25	Y25	Z25	X26	Y26	Z26	X27	Y27	Z27	X28	Y28	Z28	X29	Y29	Z29	X30	Y30	Z30	X31	Y31	Z31	X32	Y32	Z32	X33	Y33	Z33	X34	Y34	Z34	X35	Y35	Z35	X36	Y36	Z36	X37	Y37	Z37	X38	Y38	Z38	X39	Y39	Z39	X40	Y40	Z40	X41	Y41	Z41	X42	Y42	Z42	X43	Y43	Z43	X44	Y44	Z44	X45	Y45	Z45	X46	Y46	Z46	X47	Y47	Z47	X48	Y48	Z48	X49	Y49	Z49	X50	Y50	Z50	X51	Y51	Z51	X52	Y52	Z52	X53	Y53	Z53	

489	4.88	793.1797485351562	1018.193603515625	-265.4180908203125	894.421630859375	1026.490478515625	-335.0915832519531	834.91259765625	1054.372436523438	-296.3429870605469	993.6265258789062	1280.117797851562	-99.35533142089844	799.5103759765625	1211.872680664062	-327.9160461425781	845.12646484375	1483.1494140625	-290.8455200195312	981.7882690429688	1392.1455078125	-132.5590362548828	721.5778198242188	1308.8046875	-264.8927917480469	914.12890625	1458.312255859375	-362.4493713378906	1023.438293457031	1450.83837890625	-359.64453125	1050.20654296875	1318.309448242188	-436.4306945800781	1071.97607421875	1106.5087890625	-450.6056518554688	995.445556640625	1083.612670898438	-410.9713439941406	1164.5302734375	874.146240234375	-394.9181213378906	1106.737670898438	856.4127807617188	-466.1611938476562	1092.648193359375	998.428955078125	-464.5804138183594	1168.423950195312	686.085205078125	-383.8394165039062	1125.569946289062	786.6781616210938	-460.0047302246094	1183.833740234375	796.827880859375	-416.8762512207031	754.5203857421875	1470.26513671875	-121.1419906616211	689.3203735351562	1404.66015625	-88.76079559326172	641.0403442382812	1115.793823242188	-61.68743133544922	710.8858642578125	1107.021240234375	-130.9277191162109	748.1807861328125	884.7630615234375	21.25633239746094	661.8001708984375	871.1094970703125	2.832193374633789	645.3236083984375	1043.725219726562	-30.1637134552002	766.7783203125	696.5347290039062	6.233021259307861	757.2933349609375	789.4431762695312	43.10527420043945	680.555908203125	787.2588500976562	16.22886848449707	836.5480346679688	1649.586669921875	-201.0027923583984	1040.09033203125	1684.449584960938	-128.5340576171875	933.37109375	1679.306884765625	-56.29545593261719	947.167724609375	1663.131591796875	-280.9457092285156	1062.405517578125	989.4073486328125	-311.639892578125	777.5148315429688	961.19970703125	-70.60833740234375	865.1589965820312	1001.977661132812	-30.1330738067627	1074.000732421875	1023.102416992188	-175.8558807373047	1147.43408203125	512.569091796875	-115.9787826538086	1145.401977539062	648.9622192382812	-179.3521728515625	1153.876953125	24.82777976989746	-126.6635360717773	1165.95458984375	279.02294921875	-117.5194320678711	1202.161254882812	67.00833892822266	78.21796417236328	1142.619995117188	59.1671142578125	52.99658966064453	1222.7275390625	24.18901634216309	-37.44090270996094	1070.88671875	31.49939918518066	-149.4855194091797	789.50048828125	463.5708618164062	-163.0775604248047	803.5108642578125	725.3687744140625	-63.8630485534668	601.8576049804688	130.5901794433594	-493.2873840332031	774.2880859375	350.1123046875	-228.7527465820312	759.6495971679688	36.19168090820312	-417.533935546875	755.1837158203125	49.84198379516602	-473.7195129394531	641.1561889648438	48.63520812988281	-418.9607238769531	625.3114624023438	177.9816284179688	-559.1576538085938	
490	4.89	801.2650146484375	1019.10986328125	-260.1518859863281	903.3319702148438	1028.1298828125	-328.3835754394531	843.3493041992188	1055.886352539062	-290.5529479980469	999.1177978515625	1281.616455078125	-91.28826904296875	808.4637451171875	1213.466064453125	-322.6094970703125	853.8873901367188	1484.670043945312	-285.091796875	987.9714965820312	1393.658935546875	-124.7220230102539	729.7752075195312	1310.542358398438	-260.7664794921875	923.965576171875	1459.8037109375	-355.6172180175781	1033.150268554688	1452.135864257812	-351.0914611816406	1060.839233398438	1319.50146484375	-427.3964233398438	1081.678588867188	1107.59228515625	-440.7394104003906	1004.267150878906	1085.224365234375	-402.1456604003906	1170.302368164062	873.5418090820312	-385.0438232421875	1113.334350585938	857.2772216796875	-457.2357482910156	1101.218994140625	999.4364013671875	-454.8470764160156	1170.06591796875	685.0388793945312	-375.2630920410156	1130.724731445312	787.1615600585938	-451.3226623535156	1188.392822265625	795.7705688476562	-407.136962890625	760.7572631835938	1472.218994140625	-116.8157730102539	694.9713745117188	1406.82666015625	-85.32759094238281	645.0900268554688	1118.19873046875	-58.96017456054688	716.9810180664062	1109.13427734375	-126.9056015014648	750.3117065429688	886.9178466796875	26.10946083068848	664.2574462890625	873.48876953125	5.818901062011719	648.8701171875	1046.124267578125	-27.54323577880859	768.5075073242188	698.5372924804688	11.41314220428467	758.7521362304688	791.5263061523438	48.14832305908203	682.49560546875	789.5394897460938	19.7244987487793	844.2172241210938	1651.139770507812	-195.2579040527344	1046.630615234375	1685.8310546875	-119.9014129638672	938.8795776367188	1680.787353515625	-49.26841735839844	955.9512939453125	1664.64599609375	-273.6498718261719	1070.891479492188	991.4122314453125	-302.8161315917969	782.93994140625	961.8917236328125	-65.62782287597656	869.8990478515625	1003.244506835938	-24.24649810791016	1080.930297851562	1024.863647460938	-166.7833099365234	1151.910766601562	512.5321655273438	-110.7346267700195	1151.088989257812	649.623779296875	-173.0348815917969	1153.9326171875	24.94791603088379	-126.4643249511719	1168.212158203125	278.6981201171875	-114.7127227783203	1201.838745117188	65.40392303466797	78.77294158935547	1142.437255859375	57.8502082824707	53.41226196289062	1223.022094726562	24.02853202819824	-37.39128494262695	1071.061157226562	31.7713794708252	-149.3135375976562	798.0440673828125	462.7385864257812	-149.6755676269531	809.798828125	726.3773803710938	-55.9829216003418	610.2095947265625	140.3493499755859	-488.3088073730469	782.2728271484375	350.0801086425781	-216.2298583984375	760.5941772460938	35.49321746826172	-415.9271850585938	758.6150512695312	51.31771469116211	-470.6329650878906	644.3619995117188	53.12405776977539	-417.1942443847656	637.3027954101562	188.6300201416016	-551.815673828125	
491	4.9	809.193359375	1020.022399902344	-255.1061096191406	912.0748901367188	1029.759155273438	-321.8460998535156	851.6837768554688	1057.426025390625	-284.97119140625	1004.357177734375	1283.048583984375	-83.26326751708984	817.3661499023438	1215.1494140625	-317.4470825195312	862.5855102539062	1486.258422851562	-279.2995300292969	993.9412841796875	1395.118896484375	-116.8568496704102	737.9126586914062	1312.309814453125	-256.794189453125	933.781982421875	1461.38134765625	-348.7065734863281	1042.798461914062	1453.467895507812	-342.359375	1071.4541015625	1320.787475585938	-418.2409973144531	1091.380493164062	1108.741577148438	-430.8284606933594	1013.050231933594	1086.874633789062	-393.3904418945312	1176.13232421875	873.14306640625	-374.8999938964844	1120.179443359375	858.2351684570312	-448.1131896972656	1109.876098632812	1000.499633789062	-444.9970092773438	1171.916137695312	684.3798217773438	-366.3448486328125	1136.171997070312	787.7745971679688	-442.3922119140625	1193.099731445312	794.9348754882812	-397.0582885742188	766.8203125	1474.120483398438	-112.5654144287109	700.4545288085938	1408.920043945312	-82.05008697509766	648.887939453125	1120.517456054688	-56.31312942504883	722.5538330078125	1111.211791992188	-123.0371704101562	752.5554809570312	889.17431640625	30.93733406066895	666.8598022460938	875.8110961914062	8.764840126037598	652.3006591796875	1048.446411132812	-24.85159873962402	770.7080078125	700.6969604492188	16.71064376831055	760.4752807617188	793.7562866210938	53.22040939331055	684.7294311523438	791.8209228515625	23.362060546875	851.7681274414062	1652.737670898438	-189.4525756835938	1053.03125	1687.199096679688	-111.2404937744141	944.2840576171875	1682.276611328125	-42.20302963256836	964.5921020507812	1666.176879882812	-266.2740173339844	1079.146362304688	993.1896362304688	-294.1378784179688	788.1516723632812	962.6241455078125	-60.86137771606445	874.4429931640625	1004.496337890625	-18.57965660095215	1087.678955078125	1026.47314453125	-157.8990631103516	1155.79052734375	512.3370971679688	-105.9336318969727	1156.11279296875	649.951416015625	-167.1671447753906	1153.837280273438	25.1832332611084	-126.2098922729492	1169.940673828125	278.2854919433594	-112.2633361816406	1201.39453125	63.89266204833984	79.43030548095703	1142.104858398438	56.60412979125977	53.88820648193359	1223.161987304688	24.07385063171387	-37.29084777832031	1071.080810546875	31.99042892456055	-149.1092376708984	806.7929077148438	462.1023559570312	-135.9275207519531	815.935546875	727.4969482421875	-48.12323760986328	619.5930786132812	150.6254119873047	-482.8421630859375	790.7305908203125	350.2585144042969	-203.3377380371094	761.7835083007812	34.42966842651367	-413.3438110351562	762.5647583007812	53.39556884765625	-466.4678955078125	648.0463256835938	58.60487747192383	-415.0597534179688	650.376953125	199.4229431152344	-543.9197998046875	
492	4.91	816.9669799804688	1020.947509765625	-250.2504119873047	920.6473388671875	1031.375122070312	-315.4613647460938	859.8958740234375	1058.989624023438	-279.5802001953125	1009.359069824219	1284.409423828125	-75.2879638671875	826.2299194335938	1216.906005859375	-312.4240112304688	871.21728515625	1487.902709960938	-273.4708251953125	999.6937255859375	1396.51708984375	-108.9783020019531	745.9855346679688	1314.099975585938	-252.9898986816406	943.563720703125	1463.026123046875	-341.7165222167969	1052.37353515625	1454.821655273438	-333.4669494628906	1082.036865234375	1322.14794921875	-408.9630432128906	1101.075073242188	1109.937622070312	-420.8844604492188	1021.810729980469	1088.54833984375	-384.7245788574219	1182.032470703125	872.9423828125	-364.4736633300781	1127.306518554688	859.2562255859375	-438.7900085449219	1118.633666992188	1001.60009765625	-435.0406188964844	1174.054809570312	684.0545654296875	-357.0622863769531	1141.964965820312	788.489501953125	-433.1924743652344	1197.9970703125	794.322021484375	-386.6203308105469	772.7037963867188	1475.953735351562	-108.4028854370117	705.7672729492188	1410.922485351562	-78.94066619873047	652.464111328125	1122.737670898438	-53.75923919677734	727.5384521484375	1113.226440429688	-119.358024597168	754.9111328125	891.5088500976562	35.72502517700195	669.5928955078125	878.05810546875	11.71922397613525	655.6245727539062	1050.6708984375	-22.12017631530762	773.3714599609375	702.9921875	22.14841651916504	762.4627075195312	796.1154174804688	58.32453918457031	687.2568359375	794.0823364257812	27.14809036254883	859.192138671875	1654.36376953125	-183.5853576660156	1059.27734375	1688.553588867188	-102.5586776733398	949.5744018554688	1683.771484375	-35.09980010986328	973.0684814453125	1667.712890625	-258.8272399902344	1087.15771484375	994.7431640625	-285.5725402832031	793.1312866210938	963.4263916015625	-56.27384948730469	878.7841796875	1005.753540039062	-13.11249828338623	1094.229370117188	1027.926147460938	-149.1809539794922	1159.165161132812	512.0185546875	-101.4856567382812	1160.5791015625	650.0487670898438	-161.5740966796875	1153.644897460938	25.49844360351562	-125.9132843017578	1171.2734375	277.8105773925781	-110.1273345947266	1200.9375	62.38121032714844	80.1854248046875	1141.724853515625	55.40685272216797	54.42547607421875	1223.203247070312	24.2108325958252	-37.1438102722168	1071.005249023438	32.19290924072266	-148.8863372802734	815.7194213867188	461.7129821777344	-121.867057800293	821.9163818359375	728.747802734375	-40.28390884399414	629.9849243164062	161.2978210449219	-476.9132995605469	799.6255493164062	350.6803894042969	-190.1335754394531	763.1399536132812	33.036865234375	-409.5464172363281	767.0729370117188	56.11072158813477	-460.9972534179688	652.2737426757812	65.06296539306641	-412.4877014160156	664.4719848632812	210.2295989990234	-535.5282592773438	
